<?xml version="1.0" standalone="no"?>
<!DOCTYPE svg PUBLIC "-//W3C//DTD SVG 20010904//EN"
 "http://www.w3.org/TR/2001/REC-SVG-20010904/DTD/svg10.dtd">
<svg version="1.0" xmlns="http://www.w3.org/2000/svg"
 width="500.000000pt" height="500.000000pt" viewBox="0 0 500.000000 500.000000"
 preserveAspectRatio="xMidYMid meet">
<metadata>
Created by potrace 1.14, written by Peter Selinger 2001-2017
</metadata>
<g transform="translate(0.000000,500.000000) scale(0.100000,-0.100000)"
fill="#000000" stroke="none">
<path d="M1325 4984 c-217 -44 -398 -155 -547 -333 -91 -110 -180 -318 -194
-456 -6 -61 -9 -2007 -4 -3015 2 -369 6 -422 46 -544 94 -285 329 -512 624
-601 83 -25 133 -30 270 -29 144 1 173 5 293 45 229 77 414 241 527 467 44 88
86 234 93 328 3 32 5 61 6 63 1 6 45 -63 161 -254 145 -241 186 -302 244 -364
110 -116 263 -210 421 -257 77 -23 109 -27 230 -28 159 -1 201 4 300 34 280
88 511 312 604 587 11 33 23 75 26 93 3 18 8 37 12 42 3 5 7 67 8 136 6 202
-33 345 -142 526 -29 49 -53 90 -53 92 0 1 -17 29 -38 61 -22 32 -41 63 -43
68 -2 6 -31 54 -64 108 -33 54 -67 110 -76 125 -9 15 -67 110 -129 212 -62
102 -121 199 -130 215 -10 17 -65 108 -123 203 -121 197 -116 164 -39 287 21
33 107 170 191 305 85 135 169 270 188 300 67 105 80 125 120 190 292 476 91
1109 -422 1332 -127 55 -211 72 -360 73 -151 0 -196 -6 -302 -41 -109 -37
-178 -73 -269 -143 -123 -93 -167 -145 -283 -334 -64 -103 -91 -132 -91 -95 0
23 -84 184 -124 238 -76 103 -190 203 -303 266 -57 33 -174 78 -228 90 -128
27 -290 30 -400 8z"/>
</g>
</svg>
